# xmcd CD database file
#
# Track frame offsets:
#	150
#	24752
#	49887
#
# Disc length: 991 seconds
#
# Revision: 0
# Processed by: cddbd v1.5.1PL2 Copyright (c) Steve Scherf et al.
# Submitted via: CDex 1.51
#
DISCID=1903dd03
DTITLE=Char - TODAY
DYEAR=1998
DGENRE=Rock
TTITLE0=TODAY
TTITLE1=DAN DAN DANG
TTITLE2=TODAY (Instrumental)
EXTD=YEAR: 1998
EXTT0=
EXTT1=
EXTT2=
PLAYORDER=
